<?xml version="1.0" encoding="iso-8859-1"?>
<!-- Uploaded to: SVG Repo, www.svgrepo.com, Generator: SVG Repo Mixer Tools -->
<svg height="800px" width="800px" version="1.1" id="Layer_1" xmlns="http://www.w3.org/2000/svg" xmlns:xlink="http://www.w3.org/1999/xlink" 
	 viewBox="0 0 512 512" xml:space="preserve">
<path style="fill:#AFAFD9;" d="M256,11.251c-141.384,0-256,29.51-256,65.911v399.645c0,13.224,10.72,23.942,23.942,23.942h464.116
	c13.224,0,23.942-10.72,23.942-23.942V77.162C512,40.761,397.385,11.251,256,11.251z"/>
<path style="opacity:0.1;enable-background:new    ;" d="M24.344,476.807V77.162c0-35.351,108.096-64.2,243.828-65.836
	c-4.035-0.049-8.091-0.075-12.172-0.075C114.616,11.251,0,40.76,0,77.162v399.645c0,13.224,10.72,23.942,23.942,23.942h24.344
	C35.064,500.749,24.344,490.029,24.344,476.807z"/>
<path style="fill:#FFFFFF;" d="M409.05,64.368c-0.4-0.084-0.792-0.168-1.198-0.252C365.254,55.345,311.325,50.514,256,50.514
	s-109.254,4.831-151.852,13.602c-0.405,0.084-0.796,0.168-1.198,0.252v96.088h306.1V64.368z"/>
<path style="opacity:0.1;enable-background:new    ;" d="M165.008,64.117c34.735-7.152,77.006-11.681,121.422-13.11
	c-10.054-0.324-20.218-0.491-30.43-0.491c-55.325,0-109.254,4.831-151.852,13.602c-0.405,0.084-0.796,0.168-1.198,0.252v96.088
	h60.86v-96.09C164.211,64.284,164.602,64.201,165.008,64.117z"/>
<path style="opacity:0.1;enable-background:new    ;" d="M446.799,222.774H65.201c-10.856,0-19.656,8.8-19.656,19.656v209.963
	c0,10.856,8.8,19.656,19.656,19.656h381.597c10.856,0,19.656-8.8,19.656-19.656V242.431
	C466.456,231.575,457.655,222.774,446.799,222.774z"/>
<g>
	<path style="fill:#464655;" d="M446.799,206.95H65.201c-10.856,0-19.656,8.8-19.656,19.656V436.57
		c0,10.856,8.8,19.656,19.656,19.656h381.597c10.856,0,19.656-8.8,19.656-19.656V226.608
		C466.456,215.752,457.655,206.95,446.799,206.95z"/>
	<path style="fill:#464655;" d="M143.979,97.957c-2.588,0-5.16-1.094-6.966-3.223L113.448,66.96
		c-3.262-3.844-2.79-9.605,1.054-12.867c3.845-3.262,9.606-2.79,12.867,1.054l23.565,27.774c3.262,3.844,2.79,9.605-1.054,12.867
		C148.164,97.245,146.066,97.957,143.979,97.957z"/>
	<path style="fill:#464655;" d="M197.425,89.608c-3.485,0-6.813-2.006-8.333-5.391l-12.247-27.272
		c-2.066-4.6-0.011-10.003,4.589-12.067c4.599-2.066,10.003-0.011,12.067,4.588l12.247,27.272c2.066,4.6,0.011,10.003-4.589,12.067
		C199.946,89.349,198.675,89.608,197.425,89.608z"/>
	<path style="fill:#464655;" d="M368.022,97.957c-2.087,0-4.185-0.712-5.901-2.168c-3.845-3.262-4.317-9.023-1.055-12.867
		l23.565-27.774c3.262-3.844,9.023-4.316,12.867-1.055c3.845,3.262,4.317,9.023,1.055,12.867l-23.565,27.774
		C373.182,96.861,370.611,97.957,368.022,97.957z"/>
	<path style="fill:#464655;" d="M314.575,89.608c-1.25,0-2.52-0.258-3.734-0.803c-4.599-2.066-6.653-7.469-4.588-12.067
		l12.249-27.272c2.066-4.6,7.467-6.653,12.068-4.588c4.599,2.066,6.653,7.469,4.588,12.067l-12.249,27.272
		C321.388,87.601,318.06,89.608,314.575,89.608z"/>
</g>
<path style="fill:#FF6465;" d="M256,136.305c-5.042,0-9.129-4.087-9.129-9.129V78.249c0-5.042,4.087-9.129,9.129-9.129
	c5.042,0,9.129,4.087,9.129,9.129v48.927C265.129,132.218,261.042,136.305,256,136.305z"/>
<path style="fill:#464655;" d="M222.719,160.457c0-18.38,14.9-33.28,33.28-33.28c18.38,0,33.28,14.9,33.28,33.28H222.719z"/>
</svg>